<!DOCTYPE svg PUBLIC "-//W3C//DTD SVG 1.1//EN" "http://www.w3.org/Graphics/SVG/1.1/DTD/svg11.dtd">
<!-- Uploaded to: SVG Repo, www.svgrepo.com, Transformed by: SVG Repo Mixer Tools -->
<svg xmlns="http://www.w3.org/2000/svg" xmlns:xlink="http://www.w3.org/1999/xlink" aria-label="Buffer" role="img" viewBox="0 0 512 512" fill="#000000" width="800px" height="800px" stroke="#000000">
<g id="SVGRepo_bgCarrier" stroke-width="0"/>
<g id="SVGRepo_tracerCarrier" stroke-linecap="round" stroke-linejoin="round"/>
<g id="SVGRepo_iconCarrier">
<rect width="512" height="512" rx="15%" fill="#FFFFFF"/>
<path d="M84 166q-7.5-4.5 0-9l162-75q10-4.5 20 0l162 75q7.5 4.5 0 9l-162 75q-10 4.5-20 0z"/>
<path id="a" d="M84 251q-7.5 5 0 10l162 75q10 3 20 0l162-75q7.5-5 0-10l-32-14q-10.5-4.5-21 0l-109 50q-10 4.5-20 0l-109-50q-10.5-4.5-21 0z"/>
<use transform="translate(0 94)" xlink:href="#a"/>
</g>
</svg>