<?xml version="1.0" encoding="UTF-8"?>
<svg version="1.1" xmlns="http://www.w3.org/2000/svg" width="64" height="64">
<path d="M0 0 C7.26 0 14.52 0 22 0 C21.67 2.97 21.34 5.94 21 9 C24.3 9 27.6 9 31 9 C30.67 15.6 30.34 22.2 30 29 C27.03 29 24.06 29 21 29 C21 29.66 21 30.32 21 31 C14.4 31 7.8 31 1 31 C1 30.34 1 29.68 1 29 C-1.97 29 -4.94 29 -8 29 C-8.33 22.4 -8.66 15.8 -9 9 C-5.7 9 -2.4 9 1 9 C0.67 6.03 0.34 3.06 0 0 Z M2 2 C2 2.66 2 3.32 2 4 C7.94 4 13.88 4 20 4 C20 3.34 20 2.68 20 2 C14.06 2 8.12 2 2 2 Z M3 6 C3 13.26 3 20.52 3 28 C4.32 28 5.64 28 7 28 C7 26.02 7 24.04 7 22 C9.64 22 12.28 22 15 22 C15 23.98 15 25.96 15 28 C16.32 28 17.64 28 19 28 C19 20.74 19 13.48 19 6 C13.72 6 8.44 6 3 6 Z M-7 11 C-7 11.66 -7 12.32 -7 13 C-4.36 13 -1.72 13 1 13 C1 12.34 1 11.68 1 11 C-1.64 11 -4.28 11 -7 11 Z M21 11 C21 11.66 21 12.32 21 13 C23.64 13 26.28 13 29 13 C29 12.34 29 11.68 29 11 C26.36 11 23.72 11 21 11 Z M-6 15 C-6 18.96 -6 22.92 -6 27 C-3.69 27 -1.38 27 1 27 C1 23.04 1 19.08 1 15 C-1.31 15 -3.62 15 -6 15 Z M21 15 C21 18.96 21 22.92 21 27 C23.31 27 25.62 27 28 27 C28 23.04 28 19.08 28 15 C25.69 15 23.38 15 21 15 Z M9 24 C9 25.32 9 26.64 9 28 C10.32 28 11.64 28 13 28 C13 26.68 13 25.36 13 24 C11.68 24 10.36 24 9 24 Z " fill="#FA5151" transform="translate(21,33)"/>
<path d="M0 0 C2.5 1.5 2.5 1.5 4 4 C4.791013 8.02098277 4.62153384 10.96411027 2.5 14.5 C-1.03588973 16.62153384 -3.97901723 16.791013 -8 16 C-10.5 14.5 -10.5 14.5 -12 12 C-12.791013 7.97901723 -12.62153384 5.03588973 -10.5 1.5 C-6.96411027 -0.62153384 -4.02098277 -0.791013 0 0 Z M-8 4 C-9.35618499 5.12534105 -9.35618499 5.12534105 -9.0625 8.0625 C-9.041875 9.031875 -9.02125 10.00125 -9 11 C-6.69328085 8.28450846 -6.69328085 8.28450846 -7.375 5.8125 C-7.58125 5.214375 -7.7875 4.61625 -8 4 Z M-1 4 C-0.67 6.31 -0.34 8.62 0 11 C0.33 11 0.66 11 1 11 C1 9.02 1 7.04 1 5 C0.34 4.67 -0.32 4.34 -1 4 Z M-5 10 C-5.33 10.99 -5.66 11.98 -6 13 C-4.68 13 -3.36 13 -2 13 C-2.33 12.01 -2.66 11.02 -3 10 C-3.66 10 -4.32 10 -5 10 Z " fill="#FA5151" transform="translate(59,12)"/>
<path d="M0 0 C2.5 1.5 2.5 1.5 4 4 C4.791013 8.02098277 4.62153384 10.96411027 2.5 14.5 C-1.03588973 16.62153384 -3.97901723 16.791013 -8 16 C-10.5 14.5 -10.5 14.5 -12 12 C-12.791013 7.97901723 -12.62153384 5.03588973 -10.5 1.5 C-6.96411027 -0.62153384 -4.02098277 -0.791013 0 0 Z M-8 4 C-9.35618499 5.12534105 -9.35618499 5.12534105 -9.0625 8.0625 C-9.041875 9.031875 -9.02125 10.00125 -9 11 C-8.01 11.495 -8.01 11.495 -7 12 C-7 9.36 -7 6.72 -7 4 C-7.33 4 -7.66 4 -8 4 Z M-1 4 C-1 6.64 -1 9.28 -1 12 C-0.34 11.67 0.32 11.34 1 11 C1 9.02 1 7.04 1 5 C0.34 4.67 -0.32 4.34 -1 4 Z " fill="#F95252" transform="translate(36,1)"/>
<path d="M0 0 C2.5 1.5 2.5 1.5 4 4 C4.791013 8.02098277 4.62153384 10.96411027 2.5 14.5 C-1.03588973 16.62153384 -3.97901723 16.791013 -8 16 C-10.5 14.5 -10.5 14.5 -12 12 C-12.791013 7.97901723 -12.62153384 5.03588973 -10.5 1.5 C-6.96411027 -0.62153384 -4.02098277 -0.791013 0 0 Z M-9 5 C-9.33333333 8 -9.33333333 8 -9 11 C-7.11499729 13.31563087 -7.11499729 13.31563087 -4 13.25 C-0.88500271 13.31563087 -0.88500271 13.31563087 1 11 C1.33333333 8 1.33333333 8 1 5 C-0.88500271 2.68436913 -0.88500271 2.68436913 -4 2.75 C-7.11499729 2.68436913 -7.11499729 2.68436913 -9 5 Z " fill="#FA5252" transform="translate(13,12)"/>
<path d="M0 0 C-0.66 2.64 -1.32 5.28 -2 8 C-3.175625 8.185625 -3.175625 8.185625 -4.375 8.375 C-7.14057822 8.79117993 -7.14057822 8.79117993 -9 11 C-10.9375 10.625 -10.9375 10.625 -13 10 C-13.99 10 -14.98 10 -16 10 C-16.66 10.66 -17.32 11.32 -18 12 C-18.99 12 -19.98 12 -21 12 C-20.46104623 8.2273236 -19.00464642 6.31787009 -16 4 C-13.9375 4.25 -13.9375 4.25 -12 5 C-11.01 5 -10.02 5 -9 5 C-9 3.68 -9 2.36 -9 1 C-5.8035914 -0.06546953 -3.34252724 -0.07427838 0 0 Z " fill="#FA5050" transform="translate(43,18)"/>
<path d="M0 0 C1.65 0 3.3 0 5 0 C5 1.65 5 3.3 5 5 C3.35 5 1.7 5 0 5 C0 3.35 0 1.7 0 0 Z " fill="#F95151" transform="translate(33,48)"/>
<path d="M0 0 C1.65 0 3.3 0 5 0 C5 1.65 5 3.3 5 5 C3.35 5 1.7 5 0 5 C0 3.35 0 1.7 0 0 Z " fill="#F95151" transform="translate(26,48)"/>
<path d="M0 0 C1.65 0 3.3 0 5 0 C5 1.65 5 3.3 5 5 C3.35 5 1.7 5 0 5 C0 3.35 0 1.7 0 0 Z " fill="#F95151" transform="translate(33,41)"/>
<path d="M0 0 C1.65 0 3.3 0 5 0 C5 1.65 5 3.3 5 5 C3.35 5 1.7 5 0 5 C0 3.35 0 1.7 0 0 Z " fill="#F95151" transform="translate(26,41)"/>
<path d="M0 0 C0.66 0 1.32 0 2 0 C2 1.98 2 3.96 2 6 C1.34 6 0.68 6 0 6 C0 4.02 0 2.04 0 0 Z " fill="#FA5252" transform="translate(11,17)"/>
<path d="M0 0 C0.66 0 1.32 0 2 0 C2 1.32 2 2.64 2 4 C1.34 4 0.68 4 0 4 C0 2.68 0 1.36 0 0 Z " fill="#FA5252" transform="translate(8,19)"/>
<path d="M0 0 C0.66 0 1.32 0 2 0 C2 0.66 2 1.32 2 2 C1.34 2 0.68 2 0 2 C0 1.34 0 0.68 0 0 Z " fill="#FA5252" transform="translate(5,21)"/>
</svg>
