<?xml version="1.0" encoding="UTF-8"?>
<svg version="1.1" xmlns="http://www.w3.org/2000/svg" width="500" height="500">
<path d="M0 0 C165 0 330 0 500 0 C500 165 500 330 500 500 C335 500 170 500 0 500 C0 335 0 170 0 0 Z " fill="#220041" transform="translate(0,0)"/>
<path d="M0 0 C2.19250973 1.23056424 4.26715594 2.55721817 6.359375 3.94921875 C7.68338699 4.63421106 9.01424798 5.3066804 10.359375 5.94921875 C11.390625 5.16546875 12.421875 4.38171875 13.484375 3.57421875 C20.3271158 -1.62626426 28.07057654 -1.97608778 36.359375 -1.05078125 C43.05676917 0.91904056 47.33348252 4.30877767 51.30078125 9.984375 C53.23126915 13.5675315 53.48327977 16.8741663 53.47290039 20.90136719 C53.47278709 22.37243927 53.47278709 22.37243927 53.47267151 23.87322998 C53.46751022 24.92440002 53.46234894 25.97557007 53.45703125 27.05859375 C53.4556163 28.14054016 53.45420135 29.22248657 53.45274353 30.33721924 C53.44714818 33.79124725 53.4345965 37.24521034 53.421875 40.69921875 C53.4168594 43.04166573 53.4122966 45.38411373 53.40820312 47.7265625 C53.39718028 53.46747005 53.38044674 59.20833976 53.359375 64.94921875 C50.04689313 64.97810021 46.73444333 64.99597674 43.421875 65.01171875 C42.47634766 65.02009766 41.53082031 65.02847656 40.55664062 65.03710938 C39.20795898 65.04194336 39.20795898 65.04194336 37.83203125 65.046875 C36.58305054 65.05473022 36.58305054 65.05473022 35.30883789 65.06274414 C33.359375 64.94921875 33.359375 64.94921875 32.359375 63.94921875 C32.22370924 60.9561764 32.14871332 57.98300015 32.11328125 54.98828125 C32.08034202 53.13671404 32.04713039 51.28515165 32.01367188 49.43359375 C31.96623199 46.50166162 31.92181517 43.56974899 31.88256836 40.63769531 C31.84290165 37.81684583 31.7913407 34.99640609 31.73828125 32.17578125 C31.7298671 31.29757721 31.72145294 30.41937317 31.71278381 29.51455688 C31.69614182 28.69716034 31.67949982 27.87976379 31.66235352 27.03759766 C31.64689232 25.95957382 31.64689232 25.95957382 31.63111877 24.85977173 C31.45316361 22.62189384 31.45316361 22.62189384 29.359375 19.94921875 C27.38377662 19.17996588 27.38377662 19.17996588 25.109375 18.94921875 C24.36171875 18.82546875 23.6140625 18.70171875 22.84375 18.57421875 C19.09891214 19.13947729 16.6380748 21.02425501 14.359375 23.94921875 C13.49832338 27.0189527 13.54397529 29.97965864 13.58984375 33.15234375 C13.57284172 34.46993683 13.57284172 34.46993683 13.55549622 35.81414795 C13.52482916 38.60977727 13.53460876 41.4034785 13.546875 44.19921875 C13.53272246 47.00861841 13.51039593 49.81782029 13.48469543 52.62713623 C13.47161614 54.37322745 13.46692383 56.11940468 13.47123718 57.86553955 C13.46682654 63.84176721 13.46682654 63.84176721 12.359375 64.94921875 C10.95588765 65.04782006 9.54757023 65.08000812 8.140625 65.08203125 C6.86638672 65.08396484 6.86638672 65.08396484 5.56640625 65.0859375 C4.67308594 65.08207031 3.77976563 65.07820313 2.859375 65.07421875 C1.96605469 65.07808594 1.07273438 65.08195312 0.15234375 65.0859375 C-0.69714844 65.08464844 -1.54664063 65.08335937 -2.421875 65.08203125 C-3.20626953 65.08090332 -3.99066406 65.07977539 -4.79882812 65.07861328 C-6.640625 64.94921875 -6.640625 64.94921875 -7.640625 63.94921875 C-7.73910791 60.96782056 -7.77776572 58.0053495 -7.78125 55.0234375 C-7.79957919 53.17641997 -7.8191496 51.32941442 -7.83984375 49.48242188 C-7.86882379 46.5591215 -7.89062502 43.63658815 -7.89111328 40.71313477 C-7.89444479 37.89920358 -7.92898017 35.08705904 -7.96875 32.2734375 C-7.9616803 31.40039474 -7.9546106 30.52735199 -7.94732666 29.62785339 C-8.03391892 24.50948522 -8.03391892 24.50948522 -10.96386719 20.40161133 C-14.52867881 18.46736613 -16.64077402 18.30638556 -20.640625 18.94921875 C-23.3721199 20.94925898 -25.31186333 22.54247077 -26.10583496 25.93981934 C-26.29881148 28.35605438 -26.332755 30.72849591 -26.3125 33.15234375 C-26.33162445 34.46993683 -26.33162445 34.46993683 -26.35113525 35.81414795 C-26.38737881 38.60950216 -26.390144 41.40365038 -26.390625 44.19921875 C-26.41221364 47.00862043 -26.44061312 49.81783898 -26.47296143 52.62713623 C-26.49077562 54.37320872 -26.5010127 56.11937745 -26.50311279 57.86553955 C-26.53210277 63.84069652 -26.53210277 63.84069652 -27.640625 64.94921875 C-29.04411235 65.04782006 -30.45242977 65.08000812 -31.859375 65.08203125 C-33.13361328 65.08396484 -33.13361328 65.08396484 -34.43359375 65.0859375 C-35.32691406 65.08207031 -36.22023437 65.07820313 -37.140625 65.07421875 C-38.03394531 65.07808594 -38.92726562 65.08195312 -39.84765625 65.0859375 C-40.69714844 65.08464844 -41.54664063 65.08335937 -42.421875 65.08203125 C-43.20626953 65.08090332 -43.99066406 65.07977539 -44.79882812 65.07861328 C-46.640625 64.94921875 -46.640625 64.94921875 -47.640625 63.94921875 C-47.7346317 61.98552722 -47.75805881 60.01842676 -47.75415039 58.05249023 C-47.75407486 56.79125839 -47.75399933 55.53002655 -47.75392151 54.23057556 C-47.7488141 52.84382081 -47.74359809 51.45706646 -47.73828125 50.0703125 C-47.73641701 48.65926666 -47.73499314 47.24822018 -47.73399353 45.83717346 C-47.73016879 42.1168134 -47.7203389 38.39649215 -47.70928955 34.67614746 C-47.69907448 30.88241094 -47.69449571 27.08866817 -47.68945312 23.29492188 C-47.67871658 15.84633439 -47.66112015 8.39778695 -47.640625 0.94921875 C-40.710625 0.94921875 -33.780625 0.94921875 -26.640625 0.94921875 C-26.310625 2.59921875 -25.980625 4.24921875 -25.640625 5.94921875 C-24.75375 5.16546875 -23.866875 4.38171875 -22.953125 3.57421875 C-16.71784308 -1.93603039 -7.6992676 -3.06376181 0 0 Z " fill="#ECECEC" transform="translate(210.640625,227.05078125)"/>
<path d="M0 0 C0.83265381 0.00523682 1.66530762 0.01047363 2.52319336 0.01586914 C3.33280518 0.0183667 4.14241699 0.02086426 4.9765625 0.0234375 C6.01159912 0.0325415 7.04663574 0.04164551 8.11303711 0.05102539 C11.39241211 0.07165039 14.67178711 0.09227539 18.05053711 0.11352539 C18.54553711 18.42852539 18.54553711 18.42852539 19.05053711 37.11352539 C25.80786624 30.39324996 25.80786624 30.39324996 32.39819336 23.51196289 C37.04385447 19.63898874 42.76100979 20.47341671 48.48803711 20.73852539 C49.60114258 20.7655957 50.71424805 20.79266602 51.86108398 20.82055664 C54.59292831 20.89090456 57.32070175 20.98928268 60.05053711 21.11352539 C59.21610387 25.24220322 57.52714493 26.97971476 54.48803711 29.92602539 C53.14418945 31.23120117 53.14418945 31.23120117 51.77319336 32.56274414 C48.27581793 35.83933834 44.71357914 39.02347317 41.05053711 42.11352539 C41.77848861 43.48585692 42.50679457 44.85800102 43.23632812 46.22949219 C43.91655855 47.50888244 44.5953843 48.78902032 45.27294922 50.06982422 C47.63375661 54.51426745 50.05326329 58.92135682 52.51147461 63.31274414 C53.10549072 64.38331055 53.69950684 65.45387695 54.31152344 66.55688477 C55.5047156 68.70556852 56.70757462 70.84891482 57.92041016 72.98657227 C58.46995361 73.98108398 59.01949707 74.9755957 59.58569336 76.00024414 C60.08464111 76.88929443 60.58358887 77.77834473 61.09765625 78.69433594 C62.15553915 81.38010629 62.08074632 82.46666836 61.05053711 85.11352539 C55.73003711 85.5742668 50.4307424 85.83776836 45.08959961 85.71118164 C44.21513184 85.69321533 43.34066406 85.67524902 42.43969727 85.65673828 C39.32302561 84.94811428 38.23188177 83.67198388 36.30053711 81.17602539 C35.52094918 79.16642095 34.77611782 77.14325444 34.05053711 75.11352539 C32.49971461 72.09357676 30.82628833 69.14227801 29.17553711 66.17602539 C28.37723739 64.71358203 27.58756919 63.2463798 26.80834961 61.77368164 C26.4694873 61.14083252 26.130625 60.5079834 25.78149414 59.85595703 C25.05053711 58.11352539 25.05053711 58.11352539 25.05053711 55.11352539 C22.35984572 56.69586576 20.8714638 57.64807386 19.05053711 60.11352539 C18.16853624 64.18892583 18.21119917 68.20608486 18.23803711 72.36352539 C18.21392705 74.55627166 18.18675662 76.74898719 18.15600586 78.94165039 C18.15753662 79.91005859 18.15906738 80.8784668 18.16064453 81.8762207 C18.05053711 84.11352539 18.05053711 84.11352539 17.05053711 85.11352539 C15.64704976 85.2121267 14.23873234 85.24431476 12.83178711 85.24633789 C11.55754883 85.24827148 11.55754883 85.24827148 10.25756836 85.25024414 C9.36424805 85.24637695 8.47092773 85.24250977 7.55053711 85.23852539 C6.6572168 85.24239258 5.76389648 85.24625977 4.84350586 85.25024414 C3.99401367 85.24895508 3.14452148 85.24766602 2.26928711 85.24633789 C1.48489258 85.24520996 0.70049805 85.24408203 -0.10766602 85.24291992 C-1.94946289 85.11352539 -1.94946289 85.11352539 -2.94946289 84.11352539 C-3.049859 81.53251783 -3.08563558 78.97824642 -3.07885742 76.39672852 C-3.08060974 75.58864243 -3.08236206 74.78055634 -3.08416748 73.94798279 C-3.08858665 71.26355879 -3.08564778 68.57920011 -3.08227539 65.89477539 C-3.08294841 64.0377196 -3.08391842 62.18066389 -3.08517456 60.3236084 C-3.08665162 56.42626102 -3.08449671 52.52893652 -3.07983398 48.6315918 C-3.07413669 43.62418039 -3.07741565 38.61682258 -3.08340645 33.60941315 C-3.08701184 29.77312818 -3.08587358 25.93685602 -3.08327866 22.10057068 C-3.08260933 20.25369765 -3.08343802 18.40682348 -3.08575821 16.55995178 C-3.08828438 13.98337707 -3.08444466 11.40689038 -3.07885742 8.83032227 C-3.08088165 8.05937729 -3.08290588 7.28843231 -3.08499146 6.49412537 C-3.05948697 0.17816674 -3.05948697 0.17816674 0 0 Z " fill="#ECECED" transform="translate(337.949462890625,206.886474609375)"/>
<path d="M0 0 C5.373044 3.67413866 8.92705712 8.28019868 11.05078125 14.40234375 C11.29801941 16.81915283 11.29801941 16.81915283 11.29370117 19.36035156 C11.29831612 20.79643768 11.29831612 20.79643768 11.30302429 22.26153564 C11.29583878 23.28253357 11.28865326 24.30353149 11.28125 25.35546875 C11.28079178 26.4114325 11.28033356 27.46739624 11.27986145 28.55535889 C11.27684618 30.78105802 11.26898164 33.00675518 11.2565918 35.23242188 C11.23827388 38.65372108 11.23608262 42.07475051 11.23632812 45.49609375 C11.23141508 47.65755444 11.22558769 49.81901329 11.21875 51.98046875 C11.21763718 53.0095636 11.21652435 54.03865845 11.21537781 55.09893799 C11.20899796 56.04372009 11.2026181 56.9885022 11.19604492 57.96191406 C11.19032722 59.21503387 11.19032722 59.21503387 11.18449402 60.49346924 C11.05078125 62.40234375 11.05078125 62.40234375 10.05078125 63.40234375 C8.70810712 63.48866249 7.36103803 63.50940848 6.015625 63.5 C5.20673828 63.49677734 4.39785156 63.49355469 3.56445312 63.49023438 C2.71431641 63.48185547 1.86417969 63.47347656 0.98828125 63.46484375 C0.13427734 63.46033203 -0.71972656 63.45582031 -1.59960938 63.45117188 C-3.71617538 63.43934748 -5.8327056 63.42141144 -7.94921875 63.40234375 C-8.60921875 62.08234375 -9.26921875 60.76234375 -9.94921875 59.40234375 C-10.52027344 59.76328125 -11.09132813 60.12421875 -11.6796875 60.49609375 C-18.77503338 64.55702303 -24.84544353 65.50221593 -32.94921875 64.40234375 C-39.27424415 62.6482584 -43.21101793 58.65393383 -46.94921875 53.40234375 C-49.27928538 48.74221048 -48.33715396 42.47445193 -47.94921875 37.40234375 C-45.92497711 32.24972866 -42.19091589 29.61097142 -37.48828125 26.92578125 C-29.48738599 23.48168726 -18.74267216 19.40234375 -9.94921875 19.40234375 C-10.74039779 17.40250841 -10.74039779 17.40250841 -11.94921875 15.40234375 C-15.65805033 14.16606656 -19.10148447 13.69931961 -22.94921875 14.40234375 C-25.65770798 16.77739593 -25.65770798 16.77739593 -27.94921875 19.40234375 C-32.21124841 20.84302983 -35.47142958 20.04825011 -39.76171875 18.96484375 C-41.50388672 18.53365234 -41.50388672 18.53365234 -43.28125 18.09375 C-44.16167969 17.86558594 -45.04210937 17.63742188 -45.94921875 17.40234375 C-47.22331103 13.00786979 -47.22331103 13.00786979 -46.015625 10.33984375 C-35.65230299 -3.01134512 -15.48521835 -7.51527868 0 0 Z " fill="#ECEBEC" transform="translate(317.94921875,228.59765625)"/>
<path d="M0 0 C7.31147751 4.6903818 11.76365321 12.72031607 14 21 C14.23046875 24.39453125 14.23046875 24.39453125 14.1875 27.8125 C14.18105469 28.95332031 14.17460937 30.09414063 14.16796875 31.26953125 C14 34 14 34 13 35 C9.89748799 35.08874135 6.8173188 35.11518455 3.71484375 35.09765625 C2.78402481 35.0962413 1.85320587 35.09482635 0.8941803 35.09336853 C-2.09141191 35.08775172 -5.07693029 35.0751964 -8.0625 35.0625 C-10.08137913 35.05748716 -12.10025943 35.05292388 -14.11914062 35.04882812 C-19.07945572 35.03777683 -24.03971532 35.02050095 -29 35 C-26.43330037 41.70541864 -26.43330037 41.70541864 -21 46 C-15.9445829 46.66999504 -11.56076253 46.76445512 -6.9375 44.5 C-6.298125 44.005 -5.65875 43.51 -5 43 C-4.34 43 -3.68 43 -3 43 C-2.67 42.01 -2.34 41.02 -2 40 C2.2829452 40.5479083 4.85135641 42.02432804 8.3125 44.5625 C9.19550781 45.20316406 10.07851563 45.84382813 10.98828125 46.50390625 C11.65214844 46.99761719 12.31601562 47.49132812 13 48 C12.26449569 52.59438308 9.83162198 54.45139922 6.359375 57.3203125 C-1.97071828 63.25067692 -11.71145327 64.66820245 -21.76953125 63.74609375 C-30.56297678 62.2467505 -38.89280227 58.39283027 -44.41015625 51.1484375 C-50.63083545 41.75394238 -51.43057491 30.97507726 -50 20 C-46.98522092 10.12954893 -41.04653596 2.88731918 -32 -1.9375 C-21.55354939 -6.27105506 -9.93891205 -5.12158223 0 0 Z " fill="#ECEBEC" transform="translate(446,230)"/>
<path d="M0 0 C6.04808425 1.63461737 11.80226844 4.52008773 17 8 C18 11 18 11 17.32542419 12.96388245 C16.76299767 14.08112953 16.76299767 14.08112953 16.18920898 15.22094727 C15.76804306 16.06935684 15.34687714 16.91776642 14.91294861 17.79188538 C14.44538651 18.70747726 13.9778244 19.62306915 13.49609375 20.56640625 C13.02059586 21.51507065 12.54509796 22.46373505 12.05519104 23.44114685 C11.04334959 25.45506802 10.0266785 27.46656867 9.00561523 29.47583008 C7.45859875 32.52096932 5.92624641 35.57311591 4.39648438 38.62695312 C3.40972029 40.58637392 2.42211547 42.54537159 1.43359375 44.50390625 C0.98020126 45.40532852 0.52680878 46.30675079 0.05967712 47.23548889 C-3.03910166 53.32127315 -6.41547354 59.18761161 -10 65 C-14.47470155 64.44977744 -17.84987161 63.32872875 -21.8125 61.1875 C-22.76769531 60.68605469 -23.72289062 60.18460937 -24.70703125 59.66796875 C-27 58 -27 58 -27.78340149 56.2204895 C-28.08156392 53.16383618 -27.13649116 51.53815871 -25.75854492 48.80419922 C-25.24438522 47.76987762 -24.73022552 46.73555603 -24.20048523 45.66989136 C-23.63287979 44.55937408 -23.06527435 43.44885681 -22.48046875 42.3046875 C-21.90669998 41.1608963 -21.33293121 40.0171051 -20.74177551 38.83865356 C-19.52741203 36.41912676 -18.30530372 34.00373887 -17.0769043 31.59130859 C-15.50227081 28.49863111 -13.94162221 25.39917088 -12.38601208 22.29688835 C-10.90171155 19.33859875 -9.40993315 16.38412018 -7.91796875 13.4296875 C-7.356436 12.31512177 -6.79490326 11.20055603 -6.21635437 10.05221558 C-5.69273819 9.0241983 -5.16912201 7.99618103 -4.62963867 6.93701172 C-4.16917648 6.02974335 -3.70871429 5.12247498 -3.23429871 4.18771362 C-2 2 -2 2 0 0 Z " fill="#EBEBEC" transform="translate(68,227)"/>
<path d="M0 0 C3.31248187 -0.02888146 6.62493167 -0.04675799 9.9375 -0.0625 C10.88302734 -0.07087891 11.82855469 -0.07925781 12.80273438 -0.08789062 C14.15141602 -0.09272461 14.15141602 -0.09272461 15.52734375 -0.09765625 C16.77632446 -0.10551147 16.77632446 -0.10551147 18.05053711 -0.11352539 C20 0 20 0 21 1 C21.09920863 2.92761817 21.12799365 4.85889354 21.12939453 6.7890625 C21.13254669 8.0270459 21.13569885 9.2650293 21.13894653 10.54052734 C21.13715675 11.90201859 21.1351058 13.26350951 21.1328125 14.625 C21.13348559 16.01123064 21.13445566 17.39746117 21.13571167 18.78369141 C21.1371884 21.69239422 21.1350349 24.60106637 21.13037109 27.50976562 C21.12467381 31.24596598 21.12795294 34.98209452 21.13394356 38.71829224 C21.13754985 41.58179266 21.13641027 44.44527593 21.13381577 47.30877686 C21.13314668 48.68674732 21.13397426 50.06471932 21.13629532 51.44268799 C21.13882292 53.36543754 21.13429024 55.28819252 21.12939453 57.2109375 C21.12859894 58.30712402 21.12780334 59.40331055 21.12698364 60.53271484 C21 63 21 63 20 64 C18.59651265 64.09860131 17.18819523 64.13078937 15.78125 64.1328125 C14.50701172 64.13474609 14.50701172 64.13474609 13.20703125 64.13671875 C12.31371094 64.13285156 11.42039062 64.12898438 10.5 64.125 C9.60667969 64.12886719 8.71335937 64.13273437 7.79296875 64.13671875 C6.94347656 64.13542969 6.09398438 64.13414062 5.21875 64.1328125 C4.43435547 64.13168457 3.64996094 64.13055664 2.84179688 64.12939453 C1 64 1 64 0 63 C-0.0940067 61.03630847 -0.11743381 59.06920801 -0.11352539 57.10327148 C-0.11344986 55.84203964 -0.11337433 54.5808078 -0.11329651 53.28135681 C-0.1081891 51.89460206 -0.10297309 50.50784771 -0.09765625 49.12109375 C-0.09579201 47.71004791 -0.09436814 46.29900143 -0.09336853 44.88795471 C-0.08954379 41.16759465 -0.0797139 37.4472734 -0.06866455 33.72692871 C-0.05844948 29.93319219 -0.05387071 26.13944942 -0.04882812 22.34570312 C-0.03809158 14.89711769 -0.0210157 7.44856428 0 0 Z " fill="#EBEBEC" transform="translate(112,228)"/>
<path d="M0 0 C7.0966986 0.0506907 13.40858491 1.49068987 20 4 C19.27704483 12.66569243 17.42340888 21.07197064 15.625 29.5625 C15.01072332 32.47999024 14.39920262 35.39804833 13.7890625 38.31640625 C13.63906799 39.03091949 13.48907349 39.74543274 13.33453369 40.4815979 C12.11984522 46.31169136 11.01258667 52.159052 9.97012329 58.02235413 C9.10606566 62.78786868 9.10606566 62.78786868 8 65 C1.47735909 65.24613739 -4.64462582 64.53020433 -11 63 C-11.33 62.67 -11.66 62.34 -12 62 C-11.46339302 52.62788161 -9.45599496 43.4986206 -7.625 34.3125 C-7.31728839 32.75073372 -7.00999428 31.18888513 -6.703125 29.62695312 C-6.10100756 26.56634324 -5.4943288 23.50669439 -4.88378906 20.44775391 C-4.2924401 17.48313635 -3.71175907 14.51672837 -3.13964844 11.54833984 C-3.00392426 10.85097214 -2.86820007 10.15360443 -2.72836304 9.43510437 C-2.35881095 7.53554225 -1.99252976 5.63534463 -1.62646484 3.73510742 C-1 1 -1 1 0 0 Z " fill="#EBEBEC" transform="translate(90,227)"/>
<path d="M0 0 C0 3.3 0 6.6 0 10 C-8.92307692 14.92307692 -8.92307692 14.92307692 -14 14 C-16.4375 12.3125 -16.4375 12.3125 -18 10 C-18.0625 7.4375 -18.0625 7.4375 -17 5 C-11.97622339 1.01053034 -6.28001095 0 0 0 Z " fill="#290847" transform="translate(308,263)"/>
<path d="M0 0 C3.0173817 1.31190509 4.51255819 2.25723153 6.3125 5 C7 7 7 7 7 10 C-0.26 10 -7.52 10 -15 10 C-13.99282785 4.96413924 -13.65953092 4.10505654 -10 1 C-6.80621918 -0.59689041 -3.47478685 -0.37348957 0 0 Z " fill="#270645" transform="translate(432,242)"/>
</svg>
