<svg xmlns="http://www.w3.org/2000/svg" xmlns:xlink="http://www.w3.org/1999/xlink" version="1.1" width="256" height="256" viewBox="0 0 256 256" xml:space="preserve">
<g style="stroke: none; stroke-width: 0; stroke-dasharray: none; stroke-linecap: butt; stroke-linejoin: miter; stroke-miterlimit: 10; fill: none; fill-rule: nonzero; opacity: 1;" transform="translate(1.4065934065934016 1.4065934065934016) scale(2.81 2.81)">
	<circle cx="45" cy="45" r="44" style="stroke: none; stroke-width: 1; stroke-dasharray: none; stroke-linecap: butt; stroke-linejoin: miter; stroke-miterlimit: 10; fill: rgb(216,216,216); fill-rule: nonzero; opacity: 1;" transform="  matrix(1 0 0 1 0 0) "/>
	<path d="M 64.722 54.882 c -0.137 0 -0.275 -0.028 -0.409 -0.088 c -0.503 -0.227 -0.729 -0.818 -0.502 -1.322 c 2.966 -6.602 2.232 -14.381 -1.914 -20.303 c -3.77 -5.383 -9.703 -8.586 -16.279 -8.788 c -0.552 -0.017 -0.986 -0.478 -0.969 -1.03 c 0.017 -0.552 0.454 -1.017 1.03 -0.969 c 7.213 0.221 13.722 3.735 17.856 9.64 c 4.548 6.496 5.353 15.029 2.1 22.271 C 65.469 54.662 65.104 54.882 64.722 54.882 z" style="stroke: none; stroke-width: 1; stroke-dasharray: none; stroke-linecap: butt; stroke-linejoin: miter; stroke-miterlimit: 10; fill: rgb(0,0,0); fill-rule: nonzero; opacity: 1;" transform=" matrix(1 0 0 1 0 0) " stroke-linecap="round"/>
	<path d="M 35.664 77.459 c -0.094 0 -0.189 -0.013 -0.285 -0.041 c -7.395 -2.19 -13.646 -6.693 -18.078 -13.023 c -10.694 -15.273 -6.969 -36.399 8.304 -47.093 c 0.454 -0.316 1.076 -0.206 1.393 0.246 l 6.417 9.164 c 0.152 0.217 0.211 0.486 0.166 0.748 s -0.194 0.493 -0.411 0.646 c -6.152 4.307 -9.479 11.626 -8.682 19.103 c 0.059 0.549 -0.339 1.041 -0.888 1.1 c -0.555 0.06 -1.041 -0.339 -1.1 -0.889 c -0.838 -7.866 2.486 -15.575 8.717 -20.36 l -5.273 -7.531 C 12.253 29.757 9.07 49.151 18.94 63.248 c 4.17 5.955 10.051 10.191 17.008 12.252 c 0.529 0.157 0.832 0.714 0.675 1.243 C 36.494 77.178 36.095 77.459 35.664 77.459 z" style="stroke: none; stroke-width: 1; stroke-dasharray: none; stroke-linecap: butt; stroke-linejoin: miter; stroke-miterlimit: 10; fill: rgb(0,0,0); fill-rule: nonzero; opacity: 1;" transform=" matrix(1 0 0 1 0 0) " stroke-linecap="round"/>
	<path d="M 45.032 67.619 c -7.14 0 -14.17 -3.361 -18.567 -9.641 c -0.316 -0.452 -0.207 -1.075 0.246 -1.393 c 0.455 -0.316 1.076 -0.206 1.393 0.246 c 6.523 9.314 19.41 11.587 28.729 5.064 c 0.451 -0.316 1.076 -0.207 1.393 0.246 c 0.316 0.452 0.207 1.076 -0.246 1.393 C 54.037 66.294 49.513 67.619 45.032 67.619 z" style="stroke: none; stroke-width: 1; stroke-dasharray: none; stroke-linecap: butt; stroke-linejoin: miter; stroke-miterlimit: 10; fill: rgb(0,0,0); fill-rule: nonzero; opacity: 1;" transform=" matrix(1 0 0 1 0 0) " stroke-linecap="round"/>
	<path d="M 66.621 45.813 c -0.549 0 -0.995 -0.442 -1 -0.991 c -0.005 -0.552 0.439 -1.004 0.991 -1.009 l 10.18 -0.088 c -0.237 -6.093 -2.209 -11.941 -5.732 -16.973 c -7.517 -10.738 -20.617 -15.731 -33.374 -12.723 c -0.536 0.127 -1.076 -0.206 -1.203 -0.744 c -0.127 -0.538 0.206 -1.076 0.744 -1.203 c 13.558 -3.198 27.48 2.11 35.471 13.522 c 3.948 5.639 6.063 12.245 6.117 19.104 c 0.002 0.267 -0.103 0.523 -0.29 0.712 c -0.188 0.189 -0.443 0.295 -0.71 0.295 L 66.63 45.813 C 66.627 45.813 66.624 45.813 66.621 45.813 z" style="stroke: none; stroke-width: 1; stroke-dasharray: none; stroke-linecap: butt; stroke-linejoin: miter; stroke-miterlimit: 10; fill: rgb(0,0,0); fill-rule: nonzero; opacity: 1;" transform=" matrix(1 0 0 1 0 0) " stroke-linecap="round"/>
	<path d="M 45.096 90.012 c -2.626 0 -5.27 -0.229 -7.91 -0.695 c -11.837 -2.087 -22.153 -8.659 -29.048 -18.506 c -6.894 -9.846 -9.542 -21.787 -7.455 -33.625 C 2.771 25.349 9.343 15.033 19.189 8.138 c 16.239 -11.37 37.673 -10.868 53.34 1.25 c 0.437 0.338 0.517 0.966 0.179 1.403 c -0.338 0.438 -0.965 0.517 -1.403 0.179 C 56.337 -0.61 35.853 -1.09 20.336 9.777 C 10.928 16.365 4.648 26.222 2.653 37.533 C 0.659 48.845 3.188 60.256 9.777 69.664 c 6.587 9.408 16.445 15.688 27.756 17.683 c 11.313 1.994 22.724 -0.534 32.131 -7.123 c 19.422 -13.6 24.159 -40.465 10.56 -59.887 c -0.316 -0.453 -0.207 -1.076 0.246 -1.393 c 0.45 -0.316 1.076 -0.207 1.393 0.246 c 14.231 20.326 9.274 48.441 -11.052 62.673 C 63.161 87.219 54.244 90.012 45.096 90.012 z" style="stroke: none; stroke-width: 1; stroke-dasharray: none; stroke-linecap: butt; stroke-linejoin: miter; stroke-miterlimit: 10; fill: rgb(0,0,0); fill-rule: nonzero; opacity: 1;" transform=" matrix(1 0 0 1 0 0) " stroke-linecap="round"/>
	<path d="M 24.031 84.686 c -0.165 0 -0.333 -0.041 -0.487 -0.127 c -0.482 -0.27 -0.655 -0.879 -0.385 -1.36 l 5.457 -9.767 c 0.269 -0.482 0.877 -0.655 1.361 -0.386 c 0.482 0.27 0.655 0.879 0.385 1.36 l -5.457 9.767 C 24.722 84.501 24.382 84.686 24.031 84.686 z" style="stroke: none; stroke-width: 1; stroke-dasharray: none; stroke-linecap: butt; stroke-linejoin: miter; stroke-miterlimit: 10; fill: rgb(0,0,0); fill-rule: nonzero; opacity: 1;" transform=" matrix(1 0 0 1 0 0) " stroke-linecap="round"/>
	<path d="M 47.687 78.709 c -0.25 0 -0.492 -0.094 -0.678 -0.265 c -0.205 -0.189 -0.322 -0.456 -0.322 -0.735 l -1.092 -10.663 c -0.056 -0.55 0.344 -1.04 0.893 -1.097 c 0.557 -0.044 1.041 0.346 1.097 0.894 l 0.997 9.775 c 5.253 -0.593 10.305 -2.504 14.667 -5.559 c 5.045 -3.532 8.928 -8.402 11.229 -14.084 c 0.207 -0.513 0.794 -0.758 1.302 -0.551 c 0.513 0.207 0.759 0.79 0.552 1.303 c -2.446 6.039 -6.574 11.216 -11.937 14.971 c -4.922 3.446 -10.672 5.523 -16.627 6.008 C 47.74 78.708 47.714 78.709 47.687 78.709 z" style="stroke: none; stroke-width: 1; stroke-dasharray: none; stroke-linecap: butt; stroke-linejoin: miter; stroke-miterlimit: 10; fill: rgb(0,0,0); fill-rule: nonzero; opacity: 1;" transform=" matrix(1 0 0 1 0 0) " stroke-linecap="round"/>
	<path d="M 71.88 27.179 c -0.315 0 -0.626 -0.148 -0.82 -0.426 c -0.316 -0.453 -0.207 -1.076 0.246 -1.393 l 9.164 -6.416 c 0.45 -0.316 1.076 -0.207 1.393 0.246 s 0.207 1.076 -0.246 1.393 l -9.164 6.416 C 72.278 27.12 72.078 27.179 71.88 27.179 z" style="stroke: none; stroke-width: 1; stroke-dasharray: none; stroke-linecap: butt; stroke-linejoin: miter; stroke-miterlimit: 10; fill: rgb(0,0,0); fill-rule: nonzero; opacity: 1;" transform=" matrix(1 0 0 1 0 0) " stroke-linecap="round"/>
	<path d="M 53.642 41.142 c 0 -5.097 -4.413 -9.163 -9.626 -8.588 c -4.123 0.456 -7.237 3.632 -7.619 7.762 c -0.243 2.625 0.688 5.036 2.33 6.768 c 0.897 0.947 1.427 2.176 1.427 3.48 c 0 0.639 0 1.359 0 2.088 c 0 2.677 2.17 4.847 4.847 4.847 h 0 c 2.677 0 4.847 -2.17 4.847 -4.847 V 50.48 c 0 -1.248 0.501 -2.436 1.369 -3.334 C 52.718 45.591 53.642 43.475 53.642 41.142 z" style="stroke: none; stroke-width: 1; stroke-dasharray: none; stroke-linecap: butt; stroke-linejoin: miter; stroke-miterlimit: 10; fill: rgb(255,219,69); fill-rule: nonzero; opacity: 1;" transform=" matrix(1 0 0 1 0 0) " stroke-linecap="round"/>
	<path d="M 40.153 50.571 c 0 0.637 0 1.355 0 2.082 c 0 2.677 2.17 4.847 4.847 4.847 s 4.847 -2.17 4.847 -4.847 v -2.082 H 40.153 z" style="stroke: none; stroke-width: 1; stroke-dasharray: none; stroke-linecap: butt; stroke-linejoin: miter; stroke-miterlimit: 10; fill: rgb(104,103,119); fill-rule: nonzero; opacity: 1;" transform=" matrix(1 0 0 1 0 0) " stroke-linecap="round"/>
	<path d="M 45 58.5 c -3.224 0 -5.847 -2.623 -5.847 -5.848 v -2.081 c 0 -0.553 0.448 -1 1 -1 h 9.693 c 0.553 0 1 0.447 1 1 v 2.082 C 50.847 55.877 48.224 58.5 45 58.5 z M 41.153 51.571 v 1.081 c 0 2.122 1.726 3.848 3.847 3.848 s 3.847 -1.726 3.847 -3.847 v -1.082 H 41.153 z" style="stroke: none; stroke-width: 1; stroke-dasharray: none; stroke-linecap: butt; stroke-linejoin: miter; stroke-miterlimit: 10; fill: rgb(0,0,0); fill-rule: nonzero; opacity: 1;" transform=" matrix(1 0 0 1 0 0) " stroke-linecap="round"/>
	<path d="M 45 58.5 c -3.224 0 -5.847 -2.623 -5.847 -5.848 v -2.087 c 0 -1.016 -0.41 -2.008 -1.153 -2.793 c -1.91 -2.016 -2.857 -4.767 -2.599 -7.548 c 0.426 -4.595 3.923 -8.158 8.505 -8.664 c 2.745 -0.3 5.486 0.571 7.524 2.397 c 2.041 1.828 3.212 4.446 3.212 7.185 c 0 2.513 -0.961 4.892 -2.707 6.699 c -0.701 0.726 -1.088 1.663 -1.088 2.639 v 2.174 C 50.847 55.877 48.224 58.5 45 58.5 z M 45.009 33.5 c -0.292 0 -0.587 0.016 -0.884 0.049 c -3.627 0.4 -6.396 3.222 -6.733 6.86 c -0.205 2.208 0.546 4.39 2.06 5.988 c 1.097 1.158 1.701 2.638 1.701 4.168 v 2.087 c 0 2.122 1.726 3.848 3.847 3.848 s 3.847 -1.726 3.847 -3.847 v -2.174 c 0 -1.497 0.586 -2.928 1.65 -4.029 c 1.383 -1.431 2.145 -3.316 2.145 -5.308 c 0 -2.17 -0.928 -4.246 -2.546 -5.695 C 48.676 34.176 46.896 33.5 45.009 33.5 z" style="stroke: none; stroke-width: 1; stroke-dasharray: none; stroke-linecap: butt; stroke-linejoin: miter; stroke-miterlimit: 10; fill: rgb(0,0,0); fill-rule: nonzero; opacity: 1;" transform=" matrix(1 0 0 1 0 0) " stroke-linecap="round"/>
	<path d="M 49.847 51.571 h -9.693 c -0.552 0 -1 -0.447 -1 -1 s 0.448 -1 1 -1 h 9.693 c 0.553 0 1 0.447 1 1 S 50.399 51.571 49.847 51.571 z" style="stroke: none; stroke-width: 1; stroke-dasharray: none; stroke-linecap: butt; stroke-linejoin: miter; stroke-miterlimit: 10; fill: rgb(0,0,0); fill-rule: nonzero; opacity: 1;" transform=" matrix(1 0 0 1 0 0) " stroke-linecap="round"/>
</g>
</svg>