<?xml version="1.0" encoding="UTF-8"?>
<svg version="1.1" xmlns="http://www.w3.org/2000/svg" width="1024" height="1024">
<path d="M0 0 C2.78071008 -0.00326261 5.561412 -0.00947368 8.34211731 -0.01548767 C15.08535649 -0.0281756 21.82855574 -0.03003575 28.57180485 -0.02768741 C34.05902093 -0.02589728 39.54622499 -0.0276687 45.03343964 -0.03191185 C45.81732372 -0.03250704 46.6012078 -0.03310223 47.40884595 -0.03371545 C49.00182631 -0.03492733 50.59480667 -0.03614147 52.18778703 -0.03735783 C67.09559984 -0.04821082 82.00338999 -0.04608164 96.91120407 -0.03997298 C110.51345392 -0.03480699 124.11563209 -0.04605489 137.71786776 -0.0650712 C151.72377835 -0.08449997 165.72965512 -0.09269672 179.73557925 -0.08894795 C187.58311496 -0.08704338 195.43058969 -0.08945028 203.27811432 -0.10366249 C209.95968525 -0.11564181 216.6411577 -0.11690853 223.32273015 -0.10487232 C226.72355976 -0.09902883 230.12406416 -0.09941881 233.52490425 -0.10987473 C264.43999591 -0.19801418 293.6125419 3.92345637 317.53417969 25.2746582 C318.75814453 26.28592773 318.75814453 26.28592773 320.00683594 27.31762695 C338.68895735 43.16999891 351.23582624 67.02961861 354.53417969 91.2746582 C354.64375 92.06614258 354.75332031 92.85762695 354.86621094 93.6730957 C358.39482675 123.50166137 349.85187448 151.71482636 331.53417969 175.2746582 C313.90143999 197.11249572 289.01698863 210.25116836 261.25007892 213.99612474 C251.07753438 215.03938658 240.75579534 214.68788584 230.54418945 214.6628418 C227.74332971 214.66526554 224.94248462 214.67215169 222.14163208 214.67877197 C215.36068143 214.69202661 208.57983109 214.68926868 201.79887671 214.68053405 C196.28121752 214.67372449 190.76358619 214.67285483 185.245924 214.6761055 C184.06238149 214.67679505 184.06238149 214.67679505 182.85492904 214.67749853 C181.25139928 214.67845783 179.64786952 214.67943047 178.04433977 214.6804163 C163.05065865 214.68894612 148.05703279 214.67917433 133.06336074 214.6630152 C120.2348398 214.64961684 107.40640033 214.65194083 94.57788086 214.66577148 C79.63485197 214.68187458 64.69187138 214.68811963 49.74883503 214.67893469 C48.15130707 214.67797918 46.55377911 214.67703606 44.95625114 214.6761055 C44.17049911 214.67564267 43.38474707 214.67517985 42.57518436 214.67470299 C37.07309136 214.67212705 31.57102932 214.67645381 26.06894112 214.68354416 C19.3508385 214.69201227 12.63284085 214.68956875 5.91475005 214.67370193 C2.49567821 214.66588938 -0.92307712 214.66425717 -4.34216881 214.67264938 C-21.92879053 214.71181171 -39.53634765 214.68537279 -56.15332031 208.1496582 C-57.32302368 207.7028772 -57.32302368 207.7028772 -58.51635742 207.24707031 C-85.36133488 196.56545679 -105.87060621 175.51191955 -117.59765625 149.34057617 C-120.06656612 143.46545939 -121.86246862 137.43490419 -123.46582031 131.2746582 C-123.71203125 130.32977539 -123.95824219 129.38489258 -124.21191406 128.41137695 C-129.88926393 101.35586828 -123.71185936 71.66939008 -108.78613281 48.6418457 C-105.34878614 43.55942128 -101.56745606 38.83602196 -97.46582031 34.2746582 C-96.78132812 33.50766602 -96.09683594 32.74067383 -95.39160156 31.95043945 C-83.05492153 18.88404821 -66.97879836 9.56987306 -49.84082031 4.3996582 C-49.20942139 4.20847412 -48.57802246 4.01729004 -47.92749023 3.8203125 C-32.19801936 -0.54447203 -16.17152119 -0.01674057 0 0 Z " fill="#ECB22D" transform="translate(664.4658203125,537.725341796875)"/>
<path d="M0 0 C2.74631577 -0.00161483 5.49262488 -0.00620527 8.23893738 -0.01062012 C14.89347305 -0.01946487 21.54796333 -0.0176142 28.2025007 -0.01179484 C33.61582392 -0.00725885 39.02913452 -0.00667377 44.44245911 -0.00884247 C45.21597242 -0.00914893 45.98948574 -0.0094554 46.78643885 -0.00977115 C48.35832688 -0.01041067 49.9302149 -0.0110591 51.50210291 -0.01171634 C66.20572161 -0.01740522 80.90931529 -0.01088444 95.61292988 -0.0001156 C108.20078739 0.00881859 120.788608 0.00726614 133.37646484 -0.00195312 C148.03121659 -0.01268131 162.68594646 -0.01685603 177.34070158 -0.0107286 C178.90647093 -0.01009157 180.47224029 -0.00946283 182.03800964 -0.00884247 C183.19327888 -0.00837964 183.19327888 -0.00837964 184.37188688 -0.00790747 C189.77216602 -0.00618815 195.17243116 -0.00907906 200.57270813 -0.01380157 C207.16319741 -0.01943882 213.75363911 -0.01783465 220.34412301 -0.00724009 C223.69997198 -0.00202132 227.05567715 -0.00095672 230.41153526 -0.00653839 C256.47798129 -0.04587893 278.67927093 2.40082697 301.74023438 15.25878906 C302.71476562 15.79117187 303.68929688 16.32355469 304.69335938 16.87207031 C326.64491172 29.80551416 342.37948417 52.2844562 349.74414062 76.39160156 C357.39894402 106.11025002 354.43201182 136.60185001 338.74023438 163.25878906 C322.01818285 189.43243492 298.17466509 205.32488654 268.39648438 212.49707031 C260.83811904 214.07172976 253.75160733 214.40534616 246.04129028 214.39923096 C244.8671573 214.40220208 243.69302431 214.4051732 242.48331153 214.40823436 C239.23688407 214.41539028 235.99048893 214.41809178 232.74405479 214.41883183 C229.23733814 214.42068919 225.7306328 214.4282401 222.22392273 214.43496704 C214.56021864 214.4485252 206.89651981 214.45457161 199.23280573 214.4589777 C194.44101889 214.46174531 189.64923406 214.46598368 184.85744858 214.47048187 C171.57275329 214.48267299 158.2880596 214.49297149 145.00335884 214.49635696 C144.15374159 214.49657653 143.30412434 214.4967961 142.42876112 214.49702232 C141.15139043 214.49734973 141.15139043 214.49734973 139.84821427 214.49768376 C138.12276784 214.49812722 136.39732142 214.49857378 134.671875 214.49902344 C133.81600512 214.49924487 132.96013524 214.4994663 132.07832991 214.49969444 C118.2292357 214.50363726 104.38019428 214.52107623 90.53112043 214.54438296 C76.28926836 214.56815575 62.0474427 214.58056156 47.80557048 214.58172488 C39.8187878 214.5826385 31.83207385 214.58831121 23.84531021 214.60654449 C17.0402135 214.62202595 10.23520674 214.62701904 3.43009575 214.61880639 C-0.03533275 214.61492765 -3.50058056 214.61569142 -6.96598625 214.62986374 C-24.43191866 214.68915671 -41.36654551 214.55460543 -57.88476562 208.13378906 C-58.66980469 207.83520996 -59.45484375 207.53663086 -60.26367188 207.22900391 C-72.6404619 202.32693249 -83.37438839 195.14784481 -93.25976562 186.25878906 C-94.02675781 185.57429687 -94.79375 184.88980469 -95.58398438 184.18457031 C-115.26067996 165.60674778 -126.28277187 138.82307651 -127.48242188 112.00878906 C-128.23678212 85.21872709 -120.32152185 58.44750886 -102.25976562 38.25878906 C-101.55078125 37.41960937 -100.84179688 36.58042969 -100.11132812 35.71582031 C-87.08742347 20.6126607 -69.97486369 10.39861378 -51.00976562 4.57128906 C-50.36749023 4.36866455 -49.72521484 4.16604004 -49.06347656 3.95727539 C-33.08051248 -0.70345027 -16.46959231 -0.02739324 0 0 Z " fill="#35C5F0" transform="translate(132.259765625,270.7412109375)"/>
<path d="M0 0 C15.46264254 14.3339825 25.61924237 32.68067265 31.0625 52.875 C31.2697168 53.64287842 31.47693359 54.41075684 31.69042969 55.2019043 C34.09850485 64.69309095 34.3984503 74.15326837 34.39044189 83.90550232 C34.39341302 85.05220258 34.39638414 86.19890285 34.3994453 87.3803516 C34.40807934 91.20206158 34.40963605 95.02374004 34.41113281 98.84545898 C34.41523114 101.59439781 34.42077 104.34333338 34.42617798 107.0922699 C34.43970924 114.54725955 34.445778 122.00224379 34.45018864 129.45724368 C34.45296017 134.12125241 34.45719917 138.78525909 34.46169281 143.44926643 C34.47387919 156.38837141 34.48417941 169.32747476 34.4875679 182.26658535 C34.48789725 183.50668858 34.48789725 183.50668858 34.48823325 184.77184439 C34.48845153 185.600445 34.48866981 186.4290456 34.4888947 187.28275532 C34.48933815 188.96153414 34.48978471 190.64031297 34.49023438 192.3190918 C34.49056652 193.56816348 34.49056652 193.56816348 34.49090537 194.84246892 C34.49484862 208.31819667 34.512291 221.79387019 34.5355939 235.26957702 C34.55938135 249.13862968 34.57177312 263.00765522 34.57293582 276.87672859 C34.57384849 284.65002626 34.5794971 292.42325325 34.59775543 300.1965313 C34.6132567 306.81887577 34.61821845 313.44112773 34.61001733 320.06348693 C34.60614574 323.43404017 34.60854322 326.8042583 34.62107468 330.17481232 C34.74934408 366.85073326 27.61066557 396.63000797 1.9375 423.875 C-12.66758932 437.83270061 -30.27522371 446.3904925 -49.75 451.125 C-51.20019531 451.49431641 -51.20019531 451.49431641 -52.6796875 451.87109375 C-79.13587708 457.43072779 -108.05183154 451.36929031 -130.75 437.125 C-155.08547471 420.99079356 -172.44338944 396.26159869 -178.27651751 367.53174829 C-179.58813946 360.22938299 -180.03867947 353.21676625 -180.01742554 345.80700684 C-180.02195665 344.62663487 -180.02648776 343.4462629 -180.03115618 342.23012209 C-180.04154593 338.98934681 -180.04313993 335.74871288 -180.04076743 332.50792646 C-180.04035621 328.9985038 -180.05142743 325.4891132 -180.06088257 321.97970581 C-180.0774293 315.1165455 -180.08298928 308.25341957 -180.08410732 301.39024097 C-180.08506102 295.80430956 -180.08918732 290.21838939 -180.09550858 284.63246155 C-180.11310544 268.75678364 -180.12235014 252.88113267 -180.12084763 237.00544494 C-180.12076772 236.15125553 -180.1206878 235.29706612 -180.12060547 234.41699219 C-180.12052371 233.56174613 -180.12044195 232.70650007 -180.12035771 231.82533747 C-180.11954574 217.98179863 -180.13866487 204.13836883 -180.1668822 190.2948615 C-180.19570067 176.04266089 -180.20941752 161.79051331 -180.20769465 147.53828287 C-180.20703373 139.55202022 -180.21239413 131.56587183 -180.23405075 123.57963562 C-180.25238124 116.77691638 -180.25651379 109.97436314 -180.2430319 103.17162973 C-180.23656078 99.70979688 -180.23616844 96.24828138 -180.2537384 92.78647995 C-180.40318573 56.69322246 -172.68797677 27.60348874 -147.09765625 1.41015625 C-105.73087152 -38.01281481 -42.45815442 -35.93177145 0 0 Z " fill="#2DB67C" transform="translate(718.75,31.875)"/>
<path d="M0 0 C1.48886719 1.28970703 1.48886719 1.28970703 3.0078125 2.60546875 C3.75289062 3.24871094 4.49796875 3.89195312 5.265625 4.5546875 C24.43904328 22.44729039 36.05132719 49.32909304 37.12096119 75.35897827 C37.31492347 83.58583461 37.28011134 91.81439399 37.26660156 100.04296875 C37.2682157 102.82031578 37.27280594 105.59765621 37.27722168 108.375 C37.2860724 115.10888011 37.28421306 121.84271541 37.2783964 128.57659721 C37.2738628 134.05383545 37.27327431 139.5310612 37.27544403 145.00830078 C37.2757505 145.79056439 37.27605696 146.57282801 37.27637272 147.37879658 C37.27701223 148.96840287 37.27766065 150.55800915 37.2783179 152.14761543 C37.28400853 167.0214501 37.27748324 181.89526004 37.26671717 196.76909065 C37.25778281 209.50622906 37.25933521 222.243331 37.26855469 234.98046875 C37.27927976 249.80440368 37.28345933 264.62831698 37.27733016 279.45225525 C37.27669312 281.03571574 37.27606438 282.61917623 37.27544403 284.20263672 C37.2749812 285.370998 37.2749812 285.370998 37.27450903 286.56296253 C37.27278879 292.02782019 37.27568265 297.49266402 37.28040314 302.95751953 C37.2860369 309.62564878 37.28444341 316.29373101 37.27384165 322.96185493 C37.26861828 326.3580779 37.26756398 329.75415856 37.27313995 333.15039062 C37.31224224 359.3954679 37.31224224 359.3954679 35.0078125 370.60546875 C34.77640249 371.75434822 34.77640249 371.75434822 34.54031754 372.92643738 C28.50869096 399.83747177 10.86902628 423.54079942 -12.09619141 438.42822266 C-23.05416886 445.2321587 -34.49118149 449.57344784 -46.9921875 452.60546875 C-48.45978516 452.97478516 -48.45978516 452.97478516 -49.95703125 453.3515625 C-76.78875134 458.93348418 -105.89801432 452.62838899 -128.69921875 437.8515625 C-141.08802052 429.40131218 -151.98141625 419.36048317 -159.9921875 406.60546875 C-160.56453125 405.73921875 -161.136875 404.87296875 -161.7265625 403.98046875 C-165.4343947 398.07418737 -168.25028889 391.97255536 -170.7421875 385.48046875 C-171.16467773 384.41807983 -171.16467773 384.41807983 -171.59570312 383.33422852 C-177.92444663 366.03780273 -177.42504334 347.71222293 -177.38037109 329.57788086 C-177.38279572 326.78510317 -177.38968209 323.99234017 -177.39630127 321.1995697 C-177.40954718 314.4424866 -177.4068022 307.68550421 -177.39806335 300.92841738 C-177.3912514 295.43079637 -177.39038513 289.93320333 -177.3936348 284.4355793 C-177.3940945 283.64917309 -177.39455419 282.86276689 -177.39502782 282.05253019 C-177.39598713 280.45431323 -177.39695977 278.85609627 -177.3979456 277.25787932 C-177.40647255 262.3190667 -177.39670758 247.38030956 -177.3805445 232.44150604 C-177.36714115 219.65816053 -177.36947479 206.87489677 -177.38330078 194.09155273 C-177.3993999 179.19979894 -177.40565158 164.30809359 -177.39646399 149.4163323 C-177.39550847 147.82473569 -177.39456536 146.23313907 -177.3936348 144.64154243 C-177.39317197 143.85870878 -177.39270914 143.07587513 -177.39223229 142.26931925 C-177.38965556 136.78578052 -177.39398472 131.30227285 -177.40107346 125.81873894 C-177.4095369 119.12551831 -177.40710742 112.43240307 -177.39123122 105.73919433 C-177.38341334 102.33239059 -177.38179318 98.92590489 -177.39017868 95.51908112 C-177.46890998 60.26444412 -170.30821222 30.68351428 -144.9921875 4.60546875 C-106.00568023 -34.51142817 -41.58271723 -34.84022939 0 0 Z " fill="#E01D59" transform="translate(448.9921875,563.39453125)"/>
<path d="M0 0 C1.13272842 -0.00014603 2.26545685 -0.00029205 3.43251038 -0.0004425 C7.14960697 0.00025014 10.86665247 0.00801204 14.58374023 0.01586914 C17.17162549 0.01773562 19.75951111 0.01915844 22.34739685 0.02015686 C28.44573625 0.02357548 34.5440548 0.03144446 40.64238638 0.04150635 C47.5904652 0.05271919 54.53854493 0.05819092 61.48663056 0.06320179 C75.76770806 0.07362861 90.04877038 0.09119568 104.32983398 0.11352539 C104.40034752 14.77948204 104.45302725 29.44541584 104.4852705 44.11150837 C104.50064874 50.92335537 104.52156188 57.73509621 104.55615234 64.546875 C104.58958848 71.13455482 104.60674435 77.72216633 104.61446571 84.30992699 C104.61996033 86.80900991 104.63068812 89.30808761 104.64702415 91.80712318 C104.85936515 125.67225537 98.96444765 153.98361156 76.32983398 180.11352539 C75.6865918 180.85860352 75.04334961 181.60368164 74.38061523 182.37133789 C56.32874137 201.71542833 29.11877017 213.40559174 2.80639648 214.31665039 C-28.71242427 214.83175909 -55.91939093 205.08572591 -78.91992188 183.14501953 C-84.27854045 177.90287289 -88.71076999 172.46332601 -92.67016602 166.11352539 C-93.31598633 165.12352539 -93.96180664 164.13352539 -94.62719727 163.11352539 C-109.10515535 139.63874823 -113.65992069 110.26092997 -107.76782227 83.32836914 C-103.13718308 64.60678781 -94.55770682 48.44555413 -81.67016602 34.11352539 C-80.98567383 33.3465332 -80.30118164 32.57954102 -79.59594727 31.78930664 C-58.85777692 9.82447927 -29.66090282 -0.10133638 0 0 Z " fill="#E01D59" transform="translate(115.670166015625,537.886474609375)"/>
<path d="M0 0 C14.66595665 -0.07051354 29.33189045 -0.12319327 43.99798298 -0.15543652 C50.80982998 -0.17081476 57.62157082 -0.1917279 64.43334961 -0.22631836 C71.02102943 -0.25975449 77.60864094 -0.27691037 84.1964016 -0.28463173 C86.69548452 -0.29012634 89.19456222 -0.30085413 91.69359779 -0.31719017 C122.68634148 -0.51152073 152.02830398 3.55381945 176 25 C176.83917969 25.70898438 177.67835938 26.41796875 178.54296875 27.1484375 C199.82652743 45.50188447 211.86696183 72.21125274 214 100 C215.90998779 131.44658461 204.51421292 159.02191844 183.9453125 182.328125 C165.50708178 201.76094907 139.24998913 213.1382577 112.64453125 214.27734375 C81.73003138 215.07402597 55.12526505 205.33386454 32.19140625 184.44140625 C13.7403757 166.80928413 1.36698929 141.65356781 -0.18054581 116.00801849 C-0.24315641 112.90817416 -0.24789381 109.8142674 -0.22705078 106.71386719 C-0.22734283 105.55143997 -0.22763489 104.38901276 -0.22793579 103.19136047 C-0.22655526 99.39311963 -0.21105459 95.59508108 -0.1953125 91.796875 C-0.19157782 89.14601307 -0.18863447 86.49516198 -0.18673706 83.84429932 C-0.18055458 77.60791296 -0.1641882 71.37159787 -0.14403808 65.1352427 C-0.12157761 58.02749184 -0.1106603 50.91973733 -0.10064721 43.81195974 C-0.07981858 29.20793663 -0.04470643 14.60396932 0 0 Z " fill="#ECB22D" transform="translate(539,804)"/>
<path d="M0 0 C21.40459976 -0.40611406 40.27287319 4.78406601 58.8125 15.12109375 C59.78703125 15.65347656 60.7615625 16.18585938 61.765625 16.734375 C83.96735469 29.81521866 100.74574384 53.32384671 107.32470703 78.09765625 C114.5447543 108.04748198 110.6807074 137.43539986 95.04492188 164.12255859 C80.42161834 187.83618038 56.94740817 204.63107296 30.06527996 211.62146187 C20.89309896 213.65571028 11.87840368 214.41193352 2.50463867 214.34814453 C1.351819 214.34843658 0.19899933 214.34872864 -0.98875427 214.34902954 C-4.74909342 214.34765092 -8.50922729 214.33215957 -12.26953125 214.31640625 C-14.89653922 214.31267089 -17.5235486 214.30982639 -20.15055847 214.30783081 C-26.32670478 214.30165277 -32.50277897 214.28529259 -38.67889374 214.26513183 C-45.71895432 214.24265731 -52.75901863 214.23175057 -59.79910624 214.22174096 C-74.26194109 214.2009224 -88.72471953 214.16581917 -103.1875 214.12109375 C-103.28153751 199.08128863 -103.35176691 184.04150654 -103.39474869 169.00146866 C-103.41524906 162.01585223 -103.44312508 155.03041996 -103.48925781 148.04492188 C-103.533855 141.28863564 -103.55671671 134.53253975 -103.56700897 127.77611542 C-103.57433258 125.21365115 -103.58863118 122.65119588 -103.61042023 120.08881378 C-103.85091595 90.60217084 -99.19498663 62.12115317 -79.1875 39.12109375 C-78.52234375 38.32445312 -77.8571875 37.5278125 -77.171875 36.70703125 C-59.48585916 16.15817112 -34.89590981 3.5950698 -8 0.37109375 C-5.3341484 0.18646551 -2.67043819 0.10145047 0 0 Z " fill="#2DB67C" transform="translate(908.1875,270.87890625)"/>
<path d="M0 0 C20.77710816 18.2370496 33.63802929 44.0480502 36.03125 71.55859375 C36.16497967 75.41142781 36.15790053 79.26041421 36.14477539 83.11523438 C36.14492142 84.24781677 36.14506744 85.38039917 36.1452179 86.54730225 C36.14452437 90.26983595 36.13675825 93.99231885 36.12890625 97.71484375 C36.12704008 100.30415825 36.12561712 102.89347311 36.12461853 105.48278809 C36.12119784 111.58824396 36.11332608 117.69367904 36.10326904 123.7991271 C36.09206261 130.75443774 36.08658607 137.70974928 36.08157361 144.66506672 C36.07114215 158.96291873 36.05357103 173.2607556 36.03125 187.55859375 C20.86106238 187.6526247 5.69088828 187.72285755 -9.47952652 187.76584244 C-16.52567622 187.78634417 -23.57164338 187.81422288 -30.61767578 187.86035156 C-37.43231656 187.90494357 -44.24676867 187.92780946 -51.06154633 187.93810272 C-53.64633903 187.94542719 -56.23112278 187.95972754 -58.81583405 187.98151398 C-94.34312878 188.26874438 -122.47581457 180.26734203 -148.59375 155.30859375 C-168.82140647 134.5630172 -178.37937088 106.86949865 -178.27148438 78.21484375 C-177.77666497 53.9137129 -169.2614948 29.76998224 -152.96875 11.55859375 C-152.25976562 10.71941406 -151.55078125 9.88023438 -150.8203125 9.015625 C-111.84925267 -36.17713034 -44.23039057 -36.37367645 0 0 Z " fill="#35C5F0" transform="translate(449.96875,30.44140625)"/>
</svg>
